<svg id="图层_1" data-name="图层 1" xmlns="http://www.w3.org/2000/svg" viewBox="0 0 498.1 211.96"><defs><style>.cls-1{fill:#161616;}.cls-2{fill:#e60012;}</style></defs><title>职信网logo优化</title><path class="cls-1" d="M223.91,119.35v-3.89l-23.6,1.4v-3a2.8,2.8,0,0,1,2.7-2.8h0V42.46h0a2.7,2.7,0,0,1-2.7-2.7v-3H241v3a2.7,2.7,0,0,1-2.7,2.7h0V109l2.7-.2v2.89a2.91,2.91,0,0,1-2.7,2.91h0v12.8h-6.39A8,8,0,0,1,223.91,119.35Zm-6.7-57.29h6.7V49.16a6.7,6.7,0,0,0-6.7-6.7h0Zm0,23.8h6.7V67.76h-6.7Zm0,24.3h0a7.12,7.12,0,0,0,6.7-7.11V91.56h-6.7Zm25.7,17.1,6.32-31.76a8,8,0,0,1,7.85-6.44h7.43l-6,31.67a8,8,0,0,1-7.87,6.52Zm43.4-91.89c3.4,0,6.1,3.1,6.1,6.7v34.6c0,3.8-2.7,6.8-6.1,6.8h-34.6a6.52,6.52,0,0,1-6.3-6.8V42.06a6.56,6.56,0,0,1,6.3-6.7Zm-11.5,42.3a3.6,3.6,0,0,0,3.4-3.8V45a3.7,3.7,0,0,0-3.4-3.9h-11.1a3.79,3.79,0,0,0-3.6,3.9v28.9a3.76,3.76,0,0,0,3.6,3.8Zm4.57,43.08-6-31.68h7.45a8,8,0,0,1,7.84,6.42l6.4,31.78h-7.86A8,8,0,0,1,279.38,120.74Z"/><path class="cls-1" d="M313,127.25V83.36h-.87a8,8,0,0,1-7.49-10.79,278.72,278.72,0,0,0,10.2-33.72,8,8,0,0,1,7.78-6.18h9a225.17,225.17,0,0,1-6.8,26.6h0a3.4,3.4,0,0,1,3.4,3.4v56.59a8,8,0,0,1-8,8Zm22.3-83.39h22.3V32.66h15.1v11.2H395a5.7,5.7,0,0,1-5.7,5.7H341A5.7,5.7,0,0,1,335.31,43.86Zm52,48.5a6.66,6.66,0,0,1,6.7,6.5v21.6a6.68,6.68,0,0,1-6.7,6.6h-44.4a6.59,6.59,0,0,1-6.6-6.6V98.86a6.57,6.57,0,0,1,6.6-6.5Zm-49.8-31.7H387a5.7,5.7,0,0,1,5.7,5.7h-49.5A5.7,5.7,0,0,1,337.51,60.66Zm0,16.9H387a5.7,5.7,0,0,1,5.7,5.7h-49.5A5.7,5.7,0,0,1,337.51,77.56Zm37.5,43.8a3.8,3.8,0,0,0,3.8-3.8v-15.8A3.8,3.8,0,0,0,375,98h-19.7a3.8,3.8,0,0,0-3.8,3.8v15.8a3.8,3.8,0,0,0,3.8,3.8Z"/><path class="cls-1" d="M467,121.75h12.2A3.86,3.86,0,0,0,483,118V43.86a3.8,3.8,0,0,0-3.8-3.8h-53a3.8,3.8,0,0,0-3.8,3.8h0a5.4,5.4,0,0,0,5.4,5.4h0a7.6,7.6,0,0,1,7.29,5.47l3,10.33c.71-3.14,1.35-6.25,2-9.37a8,8,0,0,1,7.84-6.43h9.19A8,8,0,0,1,464.78,55l2.92,10c1.2-5.2,2.2-10.5,3.2-15.8h0a9.17,9.17,0,0,1,9,11q-2.58,13-6,25.91l9.1,30.9h-11.1L468.3,105c-1.3,4.1-2.7,8.1-4.1,12.1h-22l-3.5-12c-1.3,4-2.7,8-4.1,12h-11.4c3.6-10.5,6.9-21,9.8-31.6l-10.6-36.2v78.19h-7.1a8,8,0,0,1-8-8V41a6.62,6.62,0,0,1,6.6-6.6H491.5a6.59,6.59,0,0,1,6.6,6.6v79.79a6.7,6.7,0,0,1-6.7,6.7h-18.7a5.7,5.7,0,0,1-5.7-5.7Zm-22.7-35.7,8.8,30c3.5-10.1,6.7-20.3,9.5-30.5L452.11,50C450,62.16,447.51,74.16,444.31,86.06Z"/><path id="形状_10_拷贝_2" data-name="形状 10 拷贝 2" class="cls-2" d="M40.55,202.11c2.09-1.14-8.82-5.52-17.17-40.68-1.47-12.19-3.6-29.58,4.62-50.8C33,100,37.31,89,39.23,76.1c1.22-11.44.06-14.8-.88-18.25A5.46,5.46,0,0,0,36,54.56a2.81,2.81,0,0,0-1.63-.44l-.32,0a3.08,3.08,0,0,0-.62.16C21.67,67.51,13,80.85,7.39,93.57a91.39,91.39,0,0,0-6,18.55,69,69,0,0,0-1.2,8.78c-.1,1.43-.09,3-.15,4.24-.34,8.46.19,50.79,35.88,75.44C35.93,200.57,38.91,203,40.55,202.11ZM74.84,0c6.82,3.13,33.84,27.57,43,40.26,3.73,7.27-14.13,11.34-37.42,12.1-22.79.31-38.17-5.63-34.12-12.1C52.74,32.22,66.1,22.2,74.84,0Zm31.94,153.54c-7.19,2.76-14,8-15.77,12.9a19,19,0,0,1,12.32-4.69c24.39-.3,15.89,28.36,4.15,36.61-7.06,6.4-18.47,11-15,13.22,13.45-1.56,28.12-9.73,39.4-20.89,6.53-6.39,10.39-13.63,11.3-18.8,2-13.09-17.1-24.53-36.42-18.34Zm-31.39-.07c7.2,2.75,14,8,15.79,12.88a19.09,19.09,0,0,0-12.33-4.69c-24.42-.3-15.91,28.33-4.15,36.56,6.88,6.16,18.53,11.47,15,13.64-12.31,1-25.92-5.7-38.65-17-7.88-7.94-9.82-14.77-11-23.1-2-13.08,16-24.5,35.36-18.31ZM61.46,64.23c-8.67-.88-16.1,6.4,5.06,12.1,21.62,3.72,41.61-.16,48.65-.88a110.16,110.16,0,0,1,18.05-.88c8.76,0,5.17-7.39,1.54-11.87-3.44-4.25-11.95-2.57-20.91-.88A200.54,200.54,0,0,1,61.46,64.23ZM60.8,90c-13.07,2-24.62,17.33-5.94,15.39,19-1.61,48.36-3.55,57.67-3.3,7.77.21,25,.84,34.34,4.4,8.47,2.7,4.45-8.23,2.2-14.07-3.61-7.27-18.77-7.9-37.64-5.28C91.45,90,68.46,89,60.8,90ZM50.23,120.53c-13.08,2.47-23,24.08-5.06,19.79,17.16-5,46.75-7.29,66.92-4.84,25.33,3.06,32.68,8.09,38.74,8.58,4.66.31,4.77-14.5,4.4-20.67-.56-6.63-23.15-8.21-44.46-9.24C86.63,112.72,56.32,119.43,50.23,120.53Z"/><path d="M200.32,138.71h4.57v10.94l-.15,5.62c2.51-2.51,5.32-4.57,9-4.57,5.72,0,8.33,3.71,8.33,10.69v17.26h-4.57V162c0-5.12-1.56-7.28-5.17-7.28-2.81,0-4.72,1.41-7.48,4.16v19.77h-4.57Z"/><path d="M230.77,151.4h3.76l.4,5h.15c1.91-3.46,4.67-5.67,7.73-5.67a5.8,5.8,0,0,1,2.91.6l-.85,4a6.45,6.45,0,0,0-2.66-.45c-2.26,0-5.07,1.61-6.87,6.27v17.51h-4.57Z"/><path d="M247.17,176.18l14.35-21.07H248.73V151.4h18.56v2.46l-14.35,21.07h14.85v3.71H247.17Z"/><path d="M273.81,138.71h4.57v10.94l-.15,5.62c2.51-2.51,5.32-4.57,9-4.57,5.72,0,8.33,3.71,8.33,10.69v17.26H291V162c0-5.12-1.56-7.28-5.17-7.28-2.81,0-4.72,1.41-7.48,4.16v19.77h-4.57Z"/><path d="M303.41,142.82a3.17,3.17,0,0,1,6.32,0,3.17,3.17,0,0,1-6.32,0Zm.85,8.58h4.57v27.24h-4.57Z"/><path d="M323.18,164.45l-8.28-13h4.92l3.66,6c.85,1.51,1.81,3,2.71,4.52h.2c.85-1.51,1.66-3,2.46-4.52l3.36-6H337l-8.28,13.5,9,13.75h-5l-4-6.37c-.9-1.66-1.91-3.31-2.91-4.87h-.25c-1,1.56-1.86,3.21-2.81,4.87L319,178.64H314.2Z"/><path d="M342.19,142.82a3.17,3.17,0,0,1,6.32,0,3.17,3.17,0,0,1-6.32,0Zm.85,8.58h4.57v27.24H343Z"/><path d="M356.84,151.4h3.76l.4,3.91h.15c2.61-2.56,5.42-4.62,9.13-4.62,5.72,0,8.33,3.71,8.33,10.69v17.26H374V162c0-5.12-1.56-7.28-5.17-7.28-2.81,0-4.72,1.41-7.48,4.16v19.77h-4.57Z"/><path d="M386.54,175.83a3.32,3.32,0,1,1,6.62,0,3.31,3.31,0,1,1-6.62,0Z"/><path d="M398.73,165c0-9.08,6.17-14.35,13.14-14.35a11.65,11.65,0,0,1,8,3.21L417.5,157a7.91,7.91,0,0,0-5.47-2.46c-4.92,0-8.53,4.26-8.53,10.54s3.41,10.43,8.43,10.43a9.6,9.6,0,0,0,6.42-2.71l2,3.06a13,13,0,0,1-8.78,3.46C404.3,179.3,398.73,174.08,398.73,165Z"/><path d="M423.06,165c0-9.08,6-14.35,12.64-14.35S448.35,156,448.35,165s-6,14.25-12.64,14.25S423.06,174.08,423.06,165Zm20.57,0c0-6.27-3.21-10.54-7.93-10.54s-7.88,4.26-7.88,10.54,3.16,10.43,7.88,10.43S443.63,171.32,443.63,165Z"/><path d="M455.52,151.4h3.76l.4,4h.15c2.36-2.61,5.22-4.67,8.48-4.67,4.16,0,6.42,2,7.53,5.22,2.81-3.06,5.67-5.22,9-5.22,5.62,0,8.28,3.71,8.28,10.69v17.26h-4.57V162c0-5.12-1.61-7.28-5.07-7.28-2.11,0-4.31,1.36-6.87,4.16v19.77H472V162c0-5.12-1.61-7.28-5.07-7.28-2.06,0-4.37,1.36-6.87,4.16v19.77h-4.57Z"/></svg>